<svg width="21" height="22" viewBox="0 0 21 22" fill="none" xmlns="http://www.w3.org/2000/svg">
<path d="M20.2473 8.72137L12.2681 0.742118C12.0323 0.506636 11.7525 0.319898 11.4446 0.192565C11.1366 0.0652325 10.8066 -0.00020088 10.4734 4.63247e-07C9.80042 0.000407093 9.15518 0.268135 8.6796 0.744286C8.20402 1.22044 7.93708 1.86601 7.93748 2.53898C7.93789 3.21195 8.20562 3.8572 8.68177 4.33278L9.84396 5.49497C10.0467 5.69873 10.1847 5.9579 10.2405 6.23988C10.2963 6.52185 10.2674 6.81403 10.1576 7.07965C10.0477 7.34527 9.86173 7.57247 9.62305 7.73264C9.38437 7.89281 9.10364 7.97881 8.8162 7.97982L2.53688 7.97982C1.86406 7.97982 1.21879 8.24709 0.743035 8.72285C0.267277 9.19861 0 9.84387 0 10.5167C0 11.1895 0.267277 11.8348 0.743035 12.3105C1.21879 12.7863 1.86406 13.0536 2.53688 13.0536H8.8162C9.10364 13.0546 9.38437 13.1406 9.62305 13.3008C9.86173 13.4609 10.0477 13.6881 10.1576 13.9537C10.2674 14.2194 10.2963 14.5115 10.2405 14.7935C10.1847 15.0755 10.0467 15.3347 9.84396 15.5384L8.68177 16.7006C8.20562 17.1762 7.93789 17.8214 7.93748 18.4944C7.93708 19.1674 8.20402 19.813 8.6796 20.2891C9.15518 20.7653 9.80042 21.033 10.4734 21.0334C11.1464 21.0338 11.7919 20.7668 12.2681 20.2913L20.2473 12.312C20.7219 11.835 20.9883 11.1895 20.9883 10.5167C20.9883 9.84385 20.7219 9.19837 20.2473 8.72137Z" fill="#BFC3D0"/>
</svg>
