<svg width="21" height="22" viewBox="0 0 21 22" fill="none" xmlns="http://www.w3.org/2000/svg">
<path d="M0.740937 12.3121L8.72019 20.2913C8.95595 20.5268 9.23579 20.7135 9.54373 20.8409C9.85166 20.9682 10.1817 21.0336 10.5149 21.0334C11.1879 21.033 11.8331 20.7653 12.3087 20.2892C12.7843 19.813 13.0512 19.1674 13.0508 18.4945C13.0504 17.8215 12.7827 17.1762 12.3065 16.7007L11.1443 15.5385C10.9416 15.3347 10.8036 15.0755 10.7478 14.7936C10.692 14.5116 10.7208 14.2194 10.8307 13.9538C10.9406 13.6882 11.1265 13.461 11.3652 13.3008C11.6039 13.1406 11.8846 13.0546 12.1721 13.0536L18.4514 13.0536C19.1242 13.0536 19.7695 12.7864 20.2452 12.3106C20.721 11.8348 20.9883 11.1896 20.9883 10.5168C20.9883 9.84393 20.721 9.19866 20.2452 8.72291C19.7695 8.24715 19.1242 7.97987 18.4514 7.97987L12.1721 7.97987C11.8846 7.97887 11.6039 7.89287 11.3652 7.7327C11.1265 7.57252 10.9406 7.34533 10.8307 7.07971C10.7208 6.81409 10.692 6.52191 10.7478 6.23993C10.8036 5.95796 10.9416 5.69878 11.1443 5.49503L12.3065 4.33284C12.7827 3.85726 13.0504 3.21201 13.0508 2.53904C13.0512 1.86606 12.7843 1.22049 12.3087 0.744343C11.8331 0.268191 11.1879 0.000463982 10.5149 5.77503e-05C9.84191 -0.000348481 9.19634 0.266598 8.72018 0.742175L0.740936 8.72142C0.26639 9.19842 -1.6904e-06 9.8439 -1.58875e-06 10.5168C-1.4871e-06 11.1896 0.26639 11.8351 0.740937 12.3121Z" fill="#FF646D"/>
</svg>
