<svg width="24" height="24" viewBox="0 0 24 24" fill="none" xmlns="http://www.w3.org/2000/svg">
<path d="M12.479 18.0189L13.9616 16.5357C14.1613 16.3384 14.4139 16.2034 14.6888 16.147C14.9638 16.0905 15.2492 16.1152 15.5104 16.2179L17.3173 16.9396C17.5812 17.0468 17.8075 17.2298 17.9677 17.4654C18.1279 17.7011 18.2148 17.9789 18.2174 18.2639V21.5746C18.2159 21.7684 18.1751 21.96 18.0976 22.1377C18.0202 22.3154 17.9075 22.4755 17.7665 22.6085C17.6256 22.7415 17.4591 22.8446 17.2773 22.9116C17.0954 22.9785 16.9019 23.008 16.7083 22.9981C4.04679 22.2102 1.49198 11.4836 1.00881 7.37838C0.986386 7.17678 1.00688 6.97272 1.06894 6.77962C1.13101 6.58651 1.23324 6.40875 1.36892 6.25801C1.50459 6.10727 1.67063 5.98697 1.85611 5.90504C2.04159 5.82311 2.24231 5.78139 2.44507 5.78264H5.64189C5.92716 5.78348 6.20566 5.86968 6.44156 6.03016C6.67746 6.19064 6.85997 6.41805 6.96563 6.68314L7.68707 8.49077C7.79313 8.75103 7.82019 9.03679 7.76487 9.31235C7.70954 9.58791 7.57428 9.84106 7.37599 10.0402L5.8934 11.5233C5.8934 11.5233 6.74721 17.3038 12.479 18.0189Z" stroke="#5D055B" stroke-width="1.5"/>
<path d="M13.0957 1C12.7557 1 12.4775 1.27835 12.4775 1.61856C12.4775 1.95877 12.7557 2.23712 13.0957 2.23712C17.8744 2.23712 21.7629 6.12788 21.7629 10.9032C21.7629 11.2434 22.0411 11.5217 22.3811 11.5217C22.7211 11.5217 22.9993 11.2434 22.9993 10.9032C22.9993 5.44746 18.5544 1 13.0957 1Z" fill="#5D055B" stroke="#5D055B" stroke-width="0.2"/>
<path d="M17.9569 10.9136C17.9569 11.2481 18.2306 11.5217 18.565 11.5217C18.8995 11.5217 19.1732 11.2481 19.1732 10.9136C19.1732 7.55664 16.4426 4.82608 13.0857 4.82608C12.7512 4.82608 12.4775 5.09974 12.4775 5.43422C12.4775 5.7687 12.7512 6.04237 13.0857 6.04237C15.7737 6.04845 17.9569 8.23168 17.9569 10.9136Z" fill="#5D055B" stroke="#5D055B" stroke-width="0.2"/>
<path d="M12.4785 9.22609C12.4785 9.54174 12.7368 9.8 13.0524 9.8C13.6895 9.8 14.2003 10.3165 14.2003 10.9478C14.2003 11.2635 14.4585 11.5217 14.7742 11.5217C15.0898 11.5217 15.3481 11.2635 15.3481 10.9478C15.3481 9.67948 14.3208 8.65218 13.0524 8.65218C12.731 8.65218 12.4785 8.91044 12.4785 9.22609Z" fill="#5D055B" stroke="#5D055B" stroke-width="0.2"/>
</svg>
