<svg width="15" height="9" viewBox="0 0 15 9" fill="none" xmlns="http://www.w3.org/2000/svg">
<path d="M3.05922 8.11534C2.76462 8.31514 2.42116 8.43092 2.06572 8.45024C1.71028 8.46955 1.35629 8.39168 1.04177 8.22497C0.727259 8.05827 0.464098 7.80903 0.280555 7.50404C0.0970116 7.19904 2.10128e-05 6.84981 -1.47993e-07 6.49385L-1.48263e-07 6.49027C1.57895e-05 6.17004 0.0720479 5.85391 0.210765 5.56529C0.349482 5.27666 0.551332 5.02293 0.801376 4.82286L6.53738 0.234039C6.72671 0.0825699 6.96196 4.9415e-05 7.20443 4.94088e-05C7.44689 4.94027e-05 7.68214 0.0825699 7.87148 0.234039L13.6075 4.82286C13.8575 5.02293 14.0594 5.27666 14.1981 5.56529C14.3368 5.85391 14.4088 6.17004 14.4089 6.49027L14.4089 6.49385C14.4088 6.84981 14.3118 7.19904 14.1283 7.50404C13.9448 7.80903 13.6816 8.05827 13.3671 8.22497C13.0526 8.39168 12.6986 8.46955 12.3431 8.45024C11.9877 8.43092 11.6442 8.31514 11.3496 8.11534L7.20421 5.32633L3.05922 8.11534Z" fill="#FF646D"/>
</svg>
