<svg width="11" height="8" viewBox="0 0 11 8" fill="none" xmlns="http://www.w3.org/2000/svg">
<path d="M8.66459 0.922447C8.88949 0.769916 9.15169 0.681531 9.42303 0.666785C9.69438 0.65204 9.96461 0.711491 10.2047 0.838753C10.4448 0.966014 10.6457 1.15628 10.7858 1.38911C10.9259 1.62195 11 1.88855 11 2.16029L11 2.16302C11 2.40749 10.945 2.64882 10.8391 2.86916C10.7332 3.08949 10.5791 3.28319 10.3882 3.43592L6.00937 6.93903C5.86483 7.05466 5.68524 7.11766 5.50014 7.11766C5.31504 7.11766 5.13545 7.05466 4.99092 6.93903L0.612054 3.43592C0.421171 3.28319 0.267078 3.08949 0.161182 2.86916C0.0552852 2.64882 0.000296447 2.40749 0.00028428 2.16302L0.000284281 2.16029C0.000300435 1.88855 0.0743425 1.62195 0.214459 1.38911C0.354576 1.15628 0.555474 0.966014 0.795574 0.838752C1.03568 0.71149 1.30591 0.65204 1.57725 0.666785C1.84859 0.681531 2.11079 0.769916 2.33569 0.922447L5.5003 3.05158L8.66459 0.922447Z" fill="#FF646D"/>
</svg>
