<svg width="24" height="24" viewBox="0 0 24 24" fill="none" xmlns="http://www.w3.org/2000/svg">
<path d="M22.5 8.59762H18.5951L15.5028 3.9526C15.4485 3.87006 15.3783 3.79907 15.2965 3.74371C15.2146 3.68835 15.1226 3.64971 15.0258 3.63002C14.9289 3.61033 14.8292 3.60996 14.7322 3.62895C14.6352 3.64794 14.5429 3.68591 14.4607 3.74067C14.3784 3.79544 14.3078 3.86592 14.2528 3.94806C14.1979 4.03021 14.1597 4.1224 14.1405 4.21934C14.1213 4.31629 14.1215 4.41607 14.141 4.51295C14.1604 4.60984 14.1989 4.70192 14.2541 4.7839L16.793 8.59765H7.20704L9.74597 4.7839C9.80116 4.70192 9.83959 4.60984 9.85908 4.51295C9.87856 4.41607 9.87871 4.31629 9.85952 4.21934C9.84032 4.1224 9.80215 4.03021 9.74721 3.94806C9.69227 3.86592 9.62164 3.79544 9.53938 3.74067C9.45711 3.68591 9.36484 3.64794 9.26786 3.62895C9.17087 3.60996 9.07109 3.61033 8.97425 3.63002C8.87741 3.64971 8.78541 3.68835 8.70355 3.74371C8.62168 3.79907 8.55156 3.87006 8.49722 3.9526L5.40486 8.59762H1.5C1.30109 8.59762 1.11032 8.67664 0.96967 8.81729C0.829018 8.95794 0.75 9.14871 0.75 9.34762C0.75 9.54653 0.829018 9.7373 0.96967 9.87795C1.11032 10.0186 1.30109 10.0976 1.5 10.0976H2.12461L4.25427 17.9872C4.44085 18.6742 4.84809 19.2808 5.41328 19.7135C5.97846 20.1463 6.67024 20.3813 7.38208 20.3823H16.6179C17.3298 20.3813 18.0215 20.1463 18.5867 19.7135C19.1519 19.2808 19.5591 18.6742 19.7457 17.9872L21.8754 10.0976H22.5C22.6989 10.0976 22.8897 10.0186 23.0303 9.87795C23.171 9.7373 23.25 9.54653 23.25 9.34762C23.25 9.14871 23.171 8.95794 23.0303 8.81729C22.8897 8.67664 22.6989 8.59762 22.5 8.59762ZM18.2977 17.5961C18.1975 17.965 17.9788 18.2908 17.6753 18.5232C17.3717 18.7556 17.0002 18.8817 16.6179 18.8822H7.38208C6.9998 18.8817 6.62829 18.7556 6.32475 18.5232C6.02121 18.2908 5.80249 17.9651 5.70225 17.5962L3.67823 10.0976H20.3218L18.2977 17.5961Z" fill="#5E055B"/>
<path d="M7.62263 16.3195C7.64831 16.4146 7.69246 16.5037 7.75257 16.5817C7.81268 16.6597 7.88757 16.7251 7.97296 16.7742C8.05835 16.8233 8.15256 16.8551 8.25023 16.8677C8.3479 16.8804 8.4471 16.8737 8.54218 16.848C8.63725 16.8223 8.72634 16.7781 8.80435 16.718C8.88237 16.6579 8.94777 16.583 8.99684 16.4977C9.04592 16.4123 9.07769 16.318 9.09035 16.2204C9.103 16.1227 9.0963 16.0235 9.07062 15.9284L8.18879 12.6611C8.13692 12.4691 8.0109 12.3055 7.83845 12.2064C7.666 12.1073 7.46125 12.0808 7.26923 12.1327C7.07722 12.1845 6.91367 12.3105 6.81457 12.483C6.71546 12.6554 6.68893 12.8602 6.74079 13.0522L7.62263 16.3195Z" fill="#5E055B"/>
<path d="M15.4587 16.8484C15.6507 16.8999 15.8554 16.8731 16.0277 16.774C16.2001 16.6749 16.3261 16.5114 16.3782 16.3196L17.26 13.0523C17.3119 12.8602 17.2854 12.6555 17.1863 12.483C17.0872 12.3106 16.9236 12.1846 16.7316 12.1327C16.5396 12.0808 16.3348 12.1074 16.1624 12.2065C15.9899 12.3056 15.8639 12.4691 15.8121 12.6611L14.9302 15.9285C14.8784 16.1205 14.9049 16.3253 15.004 16.4978C15.1031 16.6703 15.2666 16.7964 15.4587 16.8484Z" fill="#5E055B"/>
<path d="M12 16.874C12.0985 16.874 12.196 16.8546 12.287 16.8169C12.378 16.7793 12.4607 16.724 12.5304 16.6544C12.6 16.5847 12.6553 16.502 12.693 16.411C12.7306 16.32 12.75 16.2225 12.75 16.124V12.8566C12.75 12.6577 12.671 12.467 12.5303 12.3263C12.3897 12.1857 12.1989 12.1066 12 12.1066C11.8011 12.1066 11.6103 12.1857 11.4697 12.3263C11.329 12.467 11.25 12.6577 11.25 12.8566V16.124C11.25 16.2225 11.2694 16.32 11.307 16.411C11.3447 16.502 11.4 16.5847 11.4696 16.6544C11.5393 16.724 11.622 16.7793 11.713 16.8169C11.804 16.8546 11.9015 16.874 12 16.874Z" fill="#5E055B"/>
</svg>
